<mxfile host="app.diagrams.net" agent="Mozilla/5.0 (X11; Ubuntu; Linux x86_64; rv:138.0) Gecko/20100101 Firefox/138.0" version="26.2.14">
  <diagram name="PÃ¡gina-1" id="pdLEvjCBb5nsamC8Eeb2">
    <mxGraphModel dx="873" dy="431" grid="1" gridSize="10" guides="1" tooltips="1" connect="1" arrows="1" fold="1" page="1" pageScale="1" pageWidth="827" pageHeight="1169" math="0" shadow="0">
      <root>
        <mxCell id="0" />
        <mxCell id="1" parent="0" />
        <mxCell id="15GCCy4cKdhn3gO6wT4l-3" style="edgeStyle=orthogonalEdgeStyle;rounded=0;orthogonalLoop=1;jettySize=auto;html=1;entryX=0;entryY=0.5;entryDx=0;entryDy=0;" edge="1" parent="1" source="15GCCy4cKdhn3gO6wT4l-1" target="15GCCy4cKdhn3gO6wT4l-2">
          <mxGeometry relative="1" as="geometry" />
        </mxCell>
        <mxCell id="15GCCy4cKdhn3gO6wT4l-9" style="edgeStyle=orthogonalEdgeStyle;rounded=0;orthogonalLoop=1;jettySize=auto;html=1;entryX=0;entryY=0.5;entryDx=0;entryDy=0;" edge="1" parent="1" source="15GCCy4cKdhn3gO6wT4l-1" target="15GCCy4cKdhn3gO6wT4l-6">
          <mxGeometry relative="1" as="geometry" />
        </mxCell>
        <mxCell id="15GCCy4cKdhn3gO6wT4l-1" value="Pedido" style="rounded=0;whiteSpace=wrap;html=1;" vertex="1" parent="1">
          <mxGeometry x="250" y="250" width="120" height="60" as="geometry" />
        </mxCell>
        <mxCell id="15GCCy4cKdhn3gO6wT4l-2" value="" style="ellipse;whiteSpace=wrap;html=1;aspect=fixed;" vertex="1" parent="1">
          <mxGeometry x="330" y="220" width="10" height="10" as="geometry" />
        </mxCell>
        <mxCell id="15GCCy4cKdhn3gO6wT4l-4" value="data" style="text;strokeColor=none;align=center;fillColor=none;html=1;verticalAlign=middle;whiteSpace=wrap;rounded=0;" vertex="1" parent="1">
          <mxGeometry x="340" y="210" width="40" height="30" as="geometry" />
        </mxCell>
        <mxCell id="15GCCy4cKdhn3gO6wT4l-6" value="" style="ellipse;whiteSpace=wrap;html=1;aspect=fixed;" vertex="1" parent="1">
          <mxGeometry x="330" y="200" width="10" height="10" as="geometry" />
        </mxCell>
        <mxCell id="15GCCy4cKdhn3gO6wT4l-10" value="codigo" style="text;strokeColor=none;align=center;fillColor=none;html=1;verticalAlign=middle;whiteSpace=wrap;rounded=0;" vertex="1" parent="1">
          <mxGeometry x="340" y="190" width="40" height="30" as="geometry" />
        </mxCell>
      </root>
    </mxGraphModel>
  </diagram>
</mxfile>
